<svg xmlns="http://www.w3.org/2000/svg" width="18.986" height="26.075" viewBox="0 0 18.986 26.075">
  <path id="Icon_ionic-ios-calculator" data-name="Icon ionic-ios-calculator" d="M23.19,3.375H9.484a1.888,1.888,0,0,0-1.89,1.89V26.06a1.888,1.888,0,0,0,1.89,1.89H23.19a1.888,1.888,0,0,0,1.89-1.89V5.265A1.888,1.888,0,0,0,23.19,3.375Zm-.709,16.069V24.17a1.414,1.414,0,0,1-1.418,1.418h0a1.414,1.414,0,0,1-1.418-1.418V19.444a1.414,1.414,0,0,1,1.418-1.418h0A1.414,1.414,0,0,1,22.481,19.444Zm0-4.726h0a1.414,1.414,0,0,1-1.418,1.418h0a1.414,1.414,0,0,1-1.418-1.418h0A1.414,1.414,0,0,1,21.063,13.3h0A1.414,1.414,0,0,1,22.481,14.717ZM17.755,24.17h0a1.414,1.414,0,0,1-1.418,1.418h0a1.414,1.414,0,0,1-1.418-1.418h0a1.414,1.414,0,0,1,1.418-1.418h0A1.414,1.414,0,0,1,17.755,24.17Zm0-4.726h0a1.414,1.414,0,0,1-1.418,1.418h0a1.414,1.414,0,0,1-1.418-1.418h0a1.414,1.414,0,0,1,1.418-1.418h0A1.414,1.414,0,0,1,17.755,19.444Zm0-4.726h0a1.414,1.414,0,0,1-1.418,1.418h0a1.414,1.414,0,0,1-1.418-1.418h0A1.414,1.414,0,0,1,16.337,13.3h0A1.414,1.414,0,0,1,17.755,14.717ZM13.029,24.17h0a1.414,1.414,0,0,1-1.418,1.418h0a1.414,1.414,0,0,1-1.418-1.418h0a1.414,1.414,0,0,1,1.418-1.418h0A1.414,1.414,0,0,1,13.029,24.17Zm0-4.726h0a1.414,1.414,0,0,1-1.418,1.418h0a1.414,1.414,0,0,1-1.418-1.418h0a1.414,1.414,0,0,1,1.418-1.418h0A1.414,1.414,0,0,1,13.029,19.444Zm0-4.726h0a1.414,1.414,0,0,1-1.418,1.418h0a1.414,1.414,0,0,1-1.418-1.418h0A1.414,1.414,0,0,1,11.611,13.3h0A1.414,1.414,0,0,1,13.029,14.717ZM10.193,9.991V7.156a.948.948,0,0,1,.945-.945h10.4a.948.948,0,0,1,.945.945V9.991a.948.948,0,0,1-.945.945h-10.4A.948.948,0,0,1,10.193,9.991Z" transform="translate(-6.844 -2.625)" fill="none" stroke="red" stroke-width="1.5"/>
</svg>
