<svg xmlns="http://www.w3.org/2000/svg" width="52.503" height="73.18" viewBox="0 0 52.503 73.18">
  <path id="Icon_ionic-ios-calculator" data-name="Icon ionic-ios-calculator" d="M53.083,3.375H13.108A5.508,5.508,0,0,0,7.594,8.889V69.541a5.508,5.508,0,0,0,5.514,5.514H53.083A5.508,5.508,0,0,0,58.6,69.541V8.889A5.508,5.508,0,0,0,53.083,3.375ZM51.015,50.242V64.027a4.125,4.125,0,0,1-4.135,4.135h0a4.125,4.125,0,0,1-4.135-4.135V50.242a4.125,4.125,0,0,1,4.135-4.135h0A4.125,4.125,0,0,1,51.015,50.242Zm0-13.785h0a4.125,4.125,0,0,1-4.135,4.135h0a4.125,4.125,0,0,1-4.135-4.135h0a4.125,4.125,0,0,1,4.135-4.135h0A4.125,4.125,0,0,1,51.015,36.458ZM37.231,64.027h0A4.125,4.125,0,0,1,33.1,68.162h0a4.125,4.125,0,0,1-4.135-4.135h0A4.125,4.125,0,0,1,33.1,59.892h0A4.125,4.125,0,0,1,37.231,64.027Zm0-13.785h0A4.125,4.125,0,0,1,33.1,54.378h0a4.125,4.125,0,0,1-4.135-4.135h0A4.125,4.125,0,0,1,33.1,46.107h0A4.125,4.125,0,0,1,37.231,50.242Zm0-13.785h0A4.125,4.125,0,0,1,33.1,40.593h0a4.125,4.125,0,0,1-4.135-4.135h0A4.125,4.125,0,0,1,33.1,32.323h0A4.125,4.125,0,0,1,37.231,36.458ZM23.446,64.027h0a4.125,4.125,0,0,1-4.135,4.135h0a4.125,4.125,0,0,1-4.135-4.135h0a4.125,4.125,0,0,1,4.135-4.135h0A4.125,4.125,0,0,1,23.446,64.027Zm0-13.785h0a4.125,4.125,0,0,1-4.135,4.135h0a4.125,4.125,0,0,1-4.135-4.135h0a4.125,4.125,0,0,1,4.135-4.135h0A4.125,4.125,0,0,1,23.446,50.242Zm0-13.785h0a4.125,4.125,0,0,1-4.135,4.135h0a4.125,4.125,0,0,1-4.135-4.135h0a4.125,4.125,0,0,1,4.135-4.135h0A4.125,4.125,0,0,1,23.446,36.458ZM15.175,22.673V14.4a2.765,2.765,0,0,1,2.757-2.757H48.258A2.765,2.765,0,0,1,51.015,14.4v8.271a2.765,2.765,0,0,1-2.757,2.757H17.932A2.765,2.765,0,0,1,15.175,22.673Z" transform="translate(-6.844 -2.625)" fill="none" stroke="#fff" stroke-width="1.5"/>
</svg>
