<svg xmlns="http://www.w3.org/2000/svg" width="22.718" height="22.717" viewBox="0 0 22.718 22.717">
  <path id="Icon_ionic-ios-call" data-name="Icon ionic-ios-call" d="M24.673,20.775a17.456,17.456,0,0,0-3.647-2.44c-1.093-.525-1.493-.514-2.267.043-.644.465-1.06.9-1.8.736a10.747,10.747,0,0,1-3.619-2.678,10.67,10.67,0,0,1-2.678-3.62c-.157-.747.276-1.158.736-1.8.557-.774.573-1.174.043-2.267A17.111,17.111,0,0,0,9,5.1c-.8-.8-.974-.622-1.412-.465a8.035,8.035,0,0,0-1.293.687A3.9,3.9,0,0,0,4.741,6.962c-.308.665-.665,1.9,1.152,5.14a28.68,28.68,0,0,0,5.042,6.725h0l.005.005.005.005h0a28.791,28.791,0,0,0,6.725,5.042c3.235,1.818,4.474,1.461,5.14,1.152a3.834,3.834,0,0,0,1.639-1.553,8.035,8.035,0,0,0,.687-1.293C25.295,21.749,25.473,21.57,24.673,20.775Z" transform="translate(-3.522 -3.536)" fill="none" stroke="#bfbfbf" stroke-width="2"/>
</svg>
