<svg xmlns="http://www.w3.org/2000/svg" width="27.764" height="24.679" viewBox="0 0 27.764 24.679">
  <g id="Group_704" data-name="Group 704" transform="translate(-4904 -4095)">
    <path id="Icon_metro-shop" data-name="Icon metro-shop" d="M12.015,12.725l1.22-8.1H6.889L4.238,11.568a2.433,2.433,0,0,0-.125.771c0,1.7,1.774,3.085,3.966,3.085,2.021,0,3.691-1.178,3.936-2.7Zm5.98,2.7c2.19,0,3.966-1.382,3.966-3.085,0-.063,0-.126-.008-.187l-.785-7.526H14.822l-.787,7.519c0,.063-.006.126-.006.193,0,1.7,1.775,3.085,3.966,3.085Zm7.712,1.613v6.1H10.283v-6.09a6.49,6.49,0,0,1-2.2.383,6.36,6.36,0,0,1-.881-.076v9.793a2.164,2.164,0,0,0,2.156,2.159H26.633a2.167,2.167,0,0,0,2.159-2.159V17.355a6.627,6.627,0,0,1-.881.076A6.41,6.41,0,0,1,25.707,17.038Zm6.046-5.469L29.1,4.627H22.755l1.219,8.085c.238,1.527,1.908,2.712,3.938,2.712,2.19,0,3.966-1.382,3.966-3.085a2.477,2.477,0,0,0-.123-.771Z" transform="translate(4899.887 4090.373)" fill="#bfbfbf"/>
    <g id="Icon_ionic-ios-car" data-name="Icon ionic-ios-car" transform="translate(4917.09 4101.506)">
      <g id="Group_702" data-name="Group 702" transform="translate(3.375 7.313)">
        <path id="Path_26" data-name="Path 26" d="M7.259,8.286c-.146-.325-.517-.973-1.055-.973H4.937c-.538,0-.9.627-1.055.973a1.216,1.216,0,0,0-.507.9v.8a.085.085,0,0,0,.065.082,11.693,11.693,0,0,0,2.13.108,11.693,11.693,0,0,0,2.13-.108.085.085,0,0,0,.065-.082v-.8A1.142,1.142,0,0,0,7.259,8.286Zm-2.385-.72H6.267c.427,0,.654.633.654.739h-2.7C4.219,8.2,4.5,7.566,4.874,7.566ZM4.05,9.716a.338.338,0,1,1,.338-.338A.337.337,0,0,1,4.05,9.716Zm2.28-.335a.169.169,0,0,1-.169.169H4.979a.169.169,0,0,1-.169-.169h0a.169.169,0,0,1,.169-.169H6.161a.169.169,0,0,1,.169.169Zm.76.338a.338.338,0,1,1,.338-.338A.337.337,0,0,1,7.09,9.719Z" transform="translate(-3.375 -7.313)" fill="#bfbfbf"/>
        <path id="Path_27" data-name="Path 27" d="M5.513,26.7c-.506,0-1.013-.053-1.013-.053,0,.179,0,.306.063.306h.9C5.527,26.955,5.513,26.815,5.513,26.7Z" transform="translate(-4.331 -23.746)" fill="#bfbfbf"/>
      </g>
      <path id="Path_28" data-name="Path 28" d="M24.738,26.7c.507,0,1.013-.053,1.013-.053,0,.169.021.306-.053.306h-.908C24.721,26.955,24.738,26.812,24.738,26.7Z" transform="translate(-18.155 -16.434)" fill="#bfbfbf"/>
    </g>
    <path id="Icon_material-directions-car" data-name="Icon material-directions-car" d="M8.091,7.728a.337.337,0,0,0-.32-.228H5.289a.339.339,0,0,0-.32.228L4.5,9.079v1.8a.226.226,0,0,0,.226.226h.226a.226.226,0,0,0,.226-.226v-.226H7.883v.226a.226.226,0,0,0,.226.226h.226a.226.226,0,0,0,.226-.226v-1.8Zm-2.8,2.253a.338.338,0,1,1,.338-.338A.338.338,0,0,1,5.289,9.981Zm2.481,0a.338.338,0,1,1,.338-.338A.338.338,0,0,1,7.771,9.981ZM4.951,8.853l.338-1.015H7.771l.338,1.015Z" transform="translate(4906.1 4101.318)" fill="#bfbfbf"/>
    <path id="Icon_awesome-car" data-name="Icon awesome-car" d="M4.719,5.557H4.154L4,5.164A1.052,1.052,0,0,0,3.016,4.5h-1.2a1.052,1.052,0,0,0-.981.664l-.157.393H.114A.113.113,0,0,0,0,5.7l.057.227a.113.113,0,0,0,.11.086H.36a.6.6,0,0,0-.208.453v.453a.6.6,0,0,0,.151.4v.51a.3.3,0,0,0,.3.3h.3a.3.3,0,0,0,.3-.3v-.3H3.624v.3a.3.3,0,0,0,.3.3h.3a.3.3,0,0,0,.3-.3v-.51a.6.6,0,0,0,.151-.4V6.463a.6.6,0,0,0-.208-.453h.189a.113.113,0,0,0,.11-.086L4.829,5.7a.113.113,0,0,0-.11-.141ZM1.4,5.389A.453.453,0,0,1,1.817,5.1h1.2a.453.453,0,0,1,.421.285l.188.47H1.208l.188-.47ZM.906,6.914a.3.3,0,1,1,0-.6.581.581,0,0,1,.453.452C1.359,6.944,1.087,6.914.906,6.914Zm3.02,0c-.181,0-.453.03-.453-.151a.581.581,0,0,1,.453-.452.3.3,0,1,1,0,.6Z" transform="translate(4915.083 4104.124)" fill="#bfbfbf"/>
  </g>
</svg>
