<svg xmlns="http://www.w3.org/2000/svg" width="27.603" height="25.947" viewBox="0 0 27.603 25.947">
  <path id="Icon_map-car-wash" data-name="Icon map-car-wash" d="M23.739,3.648V1.44H3.864V3.648H0V27.387H2.208V5.857H3.864V8.065H23.739V5.857h1.656v21.53H27.6V3.648Zm-.523,12.7-3.6-6.142a1,1,0,0,0-.8-.483H8.788a1,1,0,0,0-.8.483l-3.6,6.142a1.094,1.094,0,0,0-1.076,1.1V22.97a1.094,1.094,0,0,0,1.076,1.1H5.521v1.656a1.594,1.594,0,0,0,1.557,1.656h.538a1.778,1.778,0,0,0,1.769-1.656V24.075h8.833v1.656a1.778,1.778,0,0,0,1.769,1.656h.538a1.594,1.594,0,0,0,1.557-1.656V24.075h1.133a1.093,1.093,0,0,0,1.075-1.1V17.45A1.093,1.093,0,0,0,23.215,16.346ZM6.271,20.762a1.381,1.381,0,1,1,1.345-1.38A1.363,1.363,0,0,1,6.271,20.762Zm.807-4.417,2.449-4.475a.954.954,0,0,1,.778-.494H17.3a.952.952,0,0,1,.778.494l2.45,4.475H7.077Zm14.255,4.417a1.381,1.381,0,1,1,1.345-1.38,1.363,1.363,0,0,1-1.345,1.38Z" transform="translate(0 -1.44)" fill="#bfbfbf"/>
</svg>
