<svg xmlns="http://www.w3.org/2000/svg" width="20.73" height="15.797" viewBox="0 0 20.73 15.797">
  <path id="chart-line" d="M19.113,76.331H2.466V64.617A.616.616,0,0,0,1.85,64H.617A.616.616,0,0,0,0,64.617V77.564A1.233,1.233,0,0,0,1.233,78.8h17.88a.616.616,0,0,0,.617-.617V76.948A.616.616,0,0,0,19.113,76.331Zm-1.233-11.1H13.331a.925.925,0,0,0-.654,1.579l1.249,1.249L11.1,70.888,8.271,68.061a1.233,1.233,0,0,0-1.744,0L3.88,70.708a.617.617,0,0,0,0,.872l.872.872a.617.617,0,0,0,.872,0L7.4,70.676,10.226,73.5a1.233,1.233,0,0,0,1.744,0l3.7-3.7,1.249,1.249A.925.925,0,0,0,18.5,70.4V65.85A.616.616,0,0,0,17.88,65.233Z" transform="translate(0.5 -63.5)" fill="none" stroke="rgba(0,0,0,0.5)" stroke-width="1"/>
</svg>
