<svg xmlns="http://www.w3.org/2000/svg" width="11.242" height="10.825" viewBox="0 0 11.242 10.825">
  <g id="Icon_ionic-ios-color-fill" data-name="Icon ionic-ios-color-fill" transform="matrix(0.951, -0.309, 0.309, 0.951, -5.326, 0.581)">
    <path id="Path_164" data-name="Path 164" d="M8.317,4.976s0,0,0,0L7.037,3.694a1.094,1.094,0,0,0-1.544,0h0a1.1,1.1,0,0,0,0,1.546L6.616,6.363,4.691,8.276a.638.638,0,0,0,.007.911l2.988,2.87a.639.639,0,0,0,.886,0c.861-.834,2.694-2.608,2.886-2.8a1,1,0,0,1,.654-.162h.007a.149.149,0,0,0,.1-.255ZM5.951,4.8a.463.463,0,0,1-.046-.61.459.459,0,0,1,.681-.041L7.709,5.268l-.645.645Z"/>
    <path id="Path_165" data-name="Path 165" d="M25.907,23.8a.091.091,0,0,0-.139,0c-.239.278-1.025,1.228-1.025,1.74a1.094,1.094,0,0,0,1.093,1.1h0a1.1,1.1,0,0,0,1.093-1.1C26.932,25.029,26.148,24.081,25.907,23.8Z" transform="translate(-13.684 -13.789)"/>
  </g>
</svg>
