<svg xmlns="http://www.w3.org/2000/svg" xmlns:xlink="http://www.w3.org/1999/xlink" width="18.4" height="17.02" viewBox="0 0 18.4 17.02">
  <defs>
    <filter id="Icon_awesome-edit" x="0" y="0" width="18.4" height="17.02" filterUnits="userSpaceOnUse">
      <feOffset dy="1" input="SourceAlpha"/>
      <feGaussianBlur stdDeviation="1" result="blur"/>
      <feFlood flood-opacity="0.502"/>
      <feComposite operator="in" in2="blur"/>
      <feComposite in="SourceGraphic"/>
    </filter>
  </defs>
  <g transform="matrix(1, 0, 0, 1, 0, 0)" filter="url(#Icon_awesome-edit)">
    <path id="Icon_awesome-edit-2" data-name="Icon awesome-edit" d="M8.667,1.8l1.942,1.942a.21.21,0,0,1,0,.3l-4.7,4.7-2,.222A.419.419,0,0,1,3.447,8.5l.222-2,4.7-4.7A.21.21,0,0,1,8.667,1.8ZM12.154,1.3,11.1.252a.842.842,0,0,0-1.188,0l-.762.762a.21.21,0,0,0,0,.3L11.1,3.253a.21.21,0,0,0,.3,0l.762-.762a.842.842,0,0,0,0-1.188ZM8.267,7.458V9.649H1.378V2.76H6.325a.265.265,0,0,0,.183-.075l.861-.861a.258.258,0,0,0-.183-.441H1.033A1.034,1.034,0,0,0,0,2.416V9.994a1.034,1.034,0,0,0,1.033,1.033H8.611A1.034,1.034,0,0,0,9.644,9.994V6.6A.259.259,0,0,0,9.2,6.414l-.861.861A.265.265,0,0,0,8.267,7.458Z" transform="translate(3 1.99)" fill="#fff"/>
  </g>
</svg>
