<?xml version="1.0" encoding="utf-8"?>
<!-- Generator: Adobe Illustrator 16.0.0, SVG Export Plug-In . SVG Version: 6.00 Build 0)  -->
<!DOCTYPE svg PUBLIC "-//W3C//DTD SVG 1.1//EN" "http://www.w3.org/Graphics/SVG/1.1/DTD/svg11.dtd">
<svg version="1.1" id="Layer_1" xmlns="http://www.w3.org/2000/svg" xmlns:xlink="http://www.w3.org/1999/xlink" x="0px" y="0px"
	 width="424.165px" height="107.414px" viewBox="37.917 196.293 424.165 107.414"
	 enable-background="new 37.917 196.293 424.165 107.414" xml:space="preserve">
<g id="Layer_4">
</g>
<g id="Exclusion_Zones">
	<rect y="158.376" fill="none" width="37.917" height="37.917"/>
	<rect y="303.707" fill="none" width="37.917" height="37.917"/>
	<rect x="37.917" y="196.293" fill="none" width="424.125" height="107.414"/>
	<rect x="462.082" y="158.376" fill="none" width="37.918" height="37.917"/>
</g>
<g id="Artwork">
	<path fill="#E00B14" d="M62.342,303.707h375.356c13.492,0,24.384-10.934,24.384-24.385v-58.604
		c0-13.493-10.932-24.385-24.384-24.385H62.342c-13.492,0-24.384,10.933-24.384,24.385v58.604
		C37.917,292.814,48.85,303.707,62.342,303.707z"/>
	<path d="M205.072,303.707h232.626c13.452,0,24.384-10.934,24.384-24.385v-58.645c0-13.452-10.932-24.384-24.384-24.384H205.072
		c-13.452,0-24.384,10.933-24.384,24.384v58.604C180.688,292.773,191.62,303.707,205.072,303.707z"/>
	<g>
		<path fill="#FFFFFF" d="M125.539,262.416c2.723-4.796,4.349-10.201,4.917-15.444h-8.413c-0.203,3.251-0.854,6.543-1.951,9.469
			c-1.097,2.886-2.52,5.445-4.349,7.6l0,0c-2.723,3.17-6.259,5.202-10.241,5.202c-4.714,0-7.966-2.032-9.226-5.405h-9.022
			c-1.463,3.495-4.918,5.283-9.266,5.283c-4.796,0-9.713-3.454-10.242-10.484h28.164l0,0l0,0c0.731-3.455,3.455-6.057,7.884-7.723
			c0,0,4.104-1.503,8.168-3.251l0,0c5.608-2.601,9.835-7.234,9.835-13.127c0-8.372-7.153-11.257-13.615-11.257
			c-8.169,0-14.184,4.267-14.184,11.095c0,4.023,2.195,7.803,5.405,11.583c-1.707,0.61-3.333,1.382-4.836,2.357
			c-2.601-7.193-8.575-11.827-16.744-11.827c-10.77,0-18.532,8.088-18.532,19.466c0,10.811,6.95,20.077,19.101,20.077
			c5.568,0,9.794-2.032,12.721-4.877c2.967,3.048,7.437,4.877,12.923,4.877c6.747,0,12.233-2.683,16.459-6.827l5.405,5.893h11.46
			L125.539,262.416z M108.185,229.578c3.089,0,5.608,1.748,5.608,5.202c0,3.17-1.91,6.258-6.177,8.168l-0.082-0.081
			c-2.52-2.682-4.917-5.771-4.917-8.697C102.658,231.285,105.259,229.578,108.185,229.578z M77.745,242.989
			c4.917,0,9.429,3.577,9.632,9.47h-19.67C68.398,245.306,73.803,242.989,77.745,242.989z"/>
	</g>
	<g>
		<path fill="#FFFFFF" d="M147.728,222.994c0.122,0.935,0.244,1.789,0.366,2.561c0.122,0.772,0.204,1.544,0.285,2.235
			c0.041,0.406,0.082,0.854,0.122,1.26l0.041,0.163c0.081,0.609,0.366,1.016,0.813,1.219c0.447,0.203,1.016,0.325,1.748,0.325
			c0.162,0,0.244,0.081,0.244,0.244v2.804c0,0.203-0.082,0.285-0.244,0.285c-1.057,0-1.829-0.285-2.317-0.854
			c-0.081-0.082-0.122-0.163-0.203-0.244c-0.081,0.69-0.244,1.3-0.447,1.869c-0.325,0.976-0.813,1.788-1.463,2.479
			c-0.65,0.691-1.422,1.219-2.397,1.585c-0.935,0.366-2.032,0.569-3.292,0.569c-2.154,0-3.78-0.61-4.958-1.789
			c-1.138-1.178-1.748-2.926-1.748-5.202c0-0.569,0.041-1.057,0.081-1.544s0.122-0.935,0.244-1.341
			c0.081-0.447,0.203-0.854,0.366-1.3c0.122-0.447,0.284-0.894,0.447-1.422h2.926c-0.325,0.894-0.61,1.748-0.772,2.601
			c-0.203,0.853-0.284,1.666-0.284,2.438c0,0.609,0.081,1.178,0.203,1.707s0.366,0.976,0.691,1.341s0.731,0.691,1.179,0.894
			c0.487,0.203,1.057,0.325,1.748,0.325c2.926,0,4.389-1.544,4.389-4.674c0-0.528-0.041-1.057-0.082-1.625s-0.122-1.179-0.203-1.87
			c-0.082-0.691-0.203-1.422-0.325-2.235c-0.122-0.813-0.285-1.748-0.406-2.764h3.251V222.994z M141.104,219.703l2.357,2.357
			l-2.357,2.357l-2.357-2.357L141.104,219.703z"/>
		<path fill="#FFFFFF" d="M158.945,222.1c1.544,0,2.723,0.732,3.617,2.154s1.463,3.617,1.666,6.625l-2.194,3.536
			c-1.707,0-3.292-0.163-4.836-0.447c-1.26-0.244-2.438-0.609-3.495-1.097c0,0-0.041,0.041-0.041,0.081
			c-0.325,0.407-0.731,0.691-1.138,0.894c-0.407,0.204-0.894,0.285-1.504,0.285c-0.163-0.041-0.244-0.122-0.244-0.285v-2.804
			c0-0.162,0.081-0.244,0.244-0.244c0.244,0,0.447-0.041,0.65-0.163c0.163-0.122,0.366-0.325,0.528-0.609
			c0.163-0.285,0.366-0.691,0.569-1.179s0.447-1.138,0.772-1.87c0.61-1.585,1.341-2.764,2.195-3.617
			C156.588,222.507,157.645,222.1,158.945,222.1z M158.132,230.838c1.138,0.163,2.194,0.244,3.21,0.244
			c-0.081-1.91-0.366-3.292-0.813-4.227c-0.487-1.016-1.057-1.504-1.748-1.504c-0.325,0-0.65,0.081-0.894,0.203
			c-0.284,0.122-0.528,0.325-0.772,0.61c-0.244,0.284-0.488,0.65-0.731,1.138c-0.244,0.447-0.488,1.016-0.731,1.707
			c-0.163,0.366-0.285,0.691-0.407,1.016C156.182,230.391,157.157,230.675,158.132,230.838z"/>
	</g>
</g>
<g id="Live_type" display="none">
	<rect x="207.754" y="224.173" display="inline" fill="none" width="237.707" height="51.329"/>
	<g display="inline" enable-background="new    ">
		<path fill="#FFFFFF" d="M262.899,261.396c0,8.462-5.349,13.892-15.623,13.892H229.05c-11.896,0-18.438-6.133-18.438-17.135
			c0-3.385,0.422-6.205,1.268-10.225h8.233c-0.634,3.313-0.983,5.852-0.983,7.965c0,6.909,2.743,10.083,11.965,10.083h16.187
			c5.137,0,6.828-1.901,6.828-6.063c0-3.95-0.565-8.814-2.113-18.825h8.798C262.334,251.313,262.899,256.674,262.899,261.396z
			 M231.72,244.124l-6.616-6.556l6.543-6.628l5.417,5.288l5.279-5.288l6.616,6.628l-6.474,6.556l-5.417-5.218L231.72,244.124z"/>
		<path fill="#FFFFFF" d="M308.291,268.309c0,13.257-7.108,22.141-21.044,22.141c-11.896,0-19.003-6.908-19.003-19.531
			c0-6.206,1.268-10.152,3.096-15.725h8.234c-1.902,4.934-3.027,9.73-3.027,14.029c0,6.909,3.449,11.916,11.05,11.916
			c8.303,0,11.822-4.373,11.822-13.115v-43.854h8.867v44.14H308.291z"/>
		<path fill="#FFFFFF" d="M328.489,275.287h-8.868v-51.118h8.868V275.287z"/>
		<path fill="#FFFFFF" d="M420.401,253.499c0,13.046-11.262,21.788-28.997,21.788c-4.856,0-11.473-0.988-16.187-1.976
			c-1.691,10.437-8.868,17.134-20.975,17.134c-11.896,0-18.72-6.908-18.72-19.531c0-6.206,1.269-10.152,3.098-15.725h8.233
			c-1.902,4.934-3.028,9.729-3.028,14.029c0,6.909,3.166,11.916,10.771,11.916c8.303,0,12.317-4.373,12.317-13.115
			c0-5.852-0.983-12.27-2.743-23.762h8.868c0.703,4.796,1.268,8.884,1.76,12.549c12.81-13.114,21.182-19.035,30.123-19.035
			C413.928,237.775,420.401,244.546,420.401,253.499z M411.465,254.771c0-4.442-3.45-7.686-8.234-7.686
			c-6.336,0-13.301,4.865-27.095,17.699c4.223,0.707,9.359,1.199,14.569,1.199C403.23,265.98,411.465,261.258,411.465,254.771z"/>
		<path fill="#FFFFFF" d="M477.266,261.396c0,8.462-5.349,13.892-15.622,13.892h-18.228c-11.896,0-18.438-6.133-18.438-17.135
			c0-3.385,0.423-6.205,1.269-10.225h8.233c-0.634,3.313-0.983,5.852-0.983,7.965c0,6.909,2.743,10.083,11.965,10.083h16.187
			c5.137,0,6.828-1.901,6.828-6.063c0-3.95-0.565-8.814-2.113-18.825h8.798C476.701,251.313,477.266,256.674,477.266,261.396z
			 M446.086,244.124l-6.616-6.556l6.543-6.628l5.418,5.288l5.279-5.288l6.616,6.628l-6.475,6.556l-5.417-5.218L446.086,244.124z"/>
		<path fill="#FFFFFF" d="M495.351,275.287h-8.867v-51.118h8.867V275.287z"/>
	</g>
	
		<text transform="matrix(0.9981 0 0 1 142.5332 234.0957)" display="inline" fill="#FFFFFF" font-family="'ArialMT'" font-size="25.1971">من</text>
</g>
<g>
	<path fill="#FFFFFF" d="M267.256,243.603v20.739c0,7.056-3.946,11.29-10.928,11.29h-25.604c-14.952,0-22.429-6.632-22.429-19.962
		v-12.063h7.827v12.063c0,4.58,1.341,7.826,4.02,9.66c2.117,1.479,5.364,2.255,9.66,2.255h19.329c3.596,0,6.063-0.423,7.405-1.341
		c1.979-1.268,2.963-3.734,2.963-7.332v-15.309h7.754l0,0H267.256z M234.813,243.53h-7.689v-7.828h7.689V243.53z M248.22,243.53
		h-7.689v-7.828h7.689V243.53z"/>
	<path fill="#FFFFFF" d="M308.16,230.135v34.418c0,6.698-4.795,11.079-12.411,11.079H274.66v-8.042h10.791l-8.889-32.448h8.327
		l8.815,32.448c2.19,0,3.734-0.496,4.795-1.553c1.342-1.342,1.979-3.598,1.979-6.771v-29.126h7.681V230.135z"/>
	<path fill="#FFFFFF" d="M336.442,275.619h-9.237c-3.809,0-6.698-1.194-8.75-3.67c-1.906-2.255-2.825-5.291-2.825-9.172v-32.643
		h7.828v29.484c0,3.459,0.771,5.715,2.255,6.771c1.057,0.771,3.102,1.194,6.063,1.194h4.653v8.034H336.442z"/>
	<path fill="#FFFFFF" d="M401.967,275.619h-69.971v-8.042h7.904c4.02,0,5.999-2.751,5.999-8.327v-12.273h7.904v9.807
		c6.275-8.539,14.037-13.331,21.657-13.331c11.924,0,17.988,8.116,18.199,24.125h8.327v8.042H401.967z M385.459,267.59l0.138-2.256
		c0-9.1-4.23-14.814-10.928-14.814c-7.904,0-16.293,7.332-20.666,17.065h31.456V267.59z"/>
	<path fill="#FFFFFF" d="M407.173,237.117h-7.754v-7.828h7.754V237.117z M420.719,262.858c0,8.539-3.946,12.77-11.777,12.77h-8.328
		v-8.043h6.633c2.613,0,4.23-0.772,5.007-2.329c0.35-0.845,0.562-2.539,0.562-5.08v-16.577h7.904V262.858L420.719,262.858z
		 M420.507,237.117h-7.754v-7.828h7.754V237.117z"/>
	<path fill="#FFFFFF" d="M435.877,275.619h-7.831v-45.565h7.831V275.619z"/>
</g>
</svg>
