<svg xmlns="http://www.w3.org/2000/svg" width="19.64" height="22.953" viewBox="0 0 19.64 22.953">
  <path id="Icon_material-live-help" data-name="Icon material-live-help" d="M21.069,3H6.571A2.07,2.07,0,0,0,4.5,5.071v14.5A2.07,2.07,0,0,0,6.571,21.64h4.142l3.107,3.107,3.107-3.107h4.142a2.077,2.077,0,0,0,2.071-2.071V5.071A2.077,2.077,0,0,0,21.069,3ZM14.855,19.569H12.784V17.5h2.071ZM17,11.543l-.932.953a3.525,3.525,0,0,0-1.212,2.931H12.784v-.518A4.168,4.168,0,0,1,14,11.978l1.284-1.3a2.025,2.025,0,0,0,.611-1.46,2.071,2.071,0,1,0-4.142,0H9.678a4.142,4.142,0,0,1,8.284,0A3.3,3.3,0,0,1,17,11.543Z" transform="translate(-4 -2.5)" fill="none" stroke="red" stroke-width="1"/>
</svg>
