<svg xmlns="http://www.w3.org/2000/svg" width="19.486" height="19.486" viewBox="0 0 19.486 19.486">
  <g id="Icon_ionic-ios-help-circle-outline" data-name="Icon ionic-ios-help-circle-outline" transform="translate(-3.375 -3.375)">
    <path id="Path_170" data-name="Path 170" d="M13.118,4.687A8.428,8.428,0,1,1,7.155,7.155a8.376,8.376,0,0,1,5.963-2.469m0-1.312a9.743,9.743,0,1,0,9.743,9.743,9.741,9.741,0,0,0-9.743-9.743Z" fill="red"/>
    <path id="Path_171" data-name="Path 171" d="M16.531,11.25c1.757,0,2.965.974,2.965,2.375a2.291,2.291,0,0,1-1.316,2.08c-.815.473-1.091.82-1.091,1.419v.37H15.463l-.014-.4a1.95,1.95,0,0,1,1.105-2.061c.792-.473,1.124-.773,1.124-1.354a1.137,1.137,0,0,0-1.26-1.007,1.185,1.185,0,0,0-1.255,1.152H13.5C13.533,12.313,14.648,11.25,16.531,11.25ZM15.3,19.279a1.006,1.006,0,1,1,1,.965A.981.981,0,0,1,15.3,19.279Z" transform="translate(-3.38 -2.629)" fill="red"/>
  </g>
</svg>
