<svg xmlns="http://www.w3.org/2000/svg" width="175.096" height="175.096" viewBox="0 0 175.096 175.096">
  <path id="Icon_awesome-user-circle" data-name="Icon awesome-user-circle" d="M87.548.563A87.548,87.548,0,1,0,175.1,88.11,87.533,87.533,0,0,0,87.548.563Zm0,33.889A31.065,31.065,0,1,1,56.482,65.517,31.066,31.066,0,0,1,87.548,34.452Zm0,121.437a67.647,67.647,0,0,1-51.717-24.076A39.359,39.359,0,0,1,70.6,110.7a8.638,8.638,0,0,1,2.506.388,46.74,46.74,0,0,0,14.438,2.436,46.562,46.562,0,0,0,14.438-2.436,8.637,8.637,0,0,1,2.506-.388,39.359,39.359,0,0,1,34.772,21.11A67.647,67.647,0,0,1,87.548,155.889Z" transform="translate(0 -0.563)" fill="#bfbfbf"/>
</svg>
