<svg xmlns="http://www.w3.org/2000/svg" width="29.443" height="23.554" viewBox="0 0 29.443 23.554">
  <path id="Icon_awesome-car-alt" data-name="Icon awesome-car-alt" d="M26.907,13.6l-.689-1.724L25,8.818A6.837,6.837,0,0,0,18.616,4.5h-7.79A6.837,6.837,0,0,0,4.448,8.818L3.225,11.875,2.536,13.6A3.917,3.917,0,0,0,0,17.259V20.2a3.894,3.894,0,0,0,.981,2.572v3.317a1.963,1.963,0,0,0,1.963,1.963H4.907A1.963,1.963,0,0,0,6.87,26.091V24.129h15.7v1.963a1.963,1.963,0,0,0,1.963,1.963H26.5a1.963,1.963,0,0,0,1.963-1.963V22.775a3.891,3.891,0,0,0,.981-2.572V17.259A3.917,3.917,0,0,0,26.907,13.6ZM8.092,10.276a2.945,2.945,0,0,1,2.734-1.851h7.79a2.945,2.945,0,0,1,2.734,1.851l1.222,3.057H6.87l1.222-3.057ZM4.907,20.191a1.852,1.852,0,0,1-1.963-1.957,1.852,1.852,0,0,1,1.963-1.957,3.776,3.776,0,0,1,2.944,2.935C7.851,20.386,6.085,20.191,4.907,20.191Zm19.629,0c-1.178,0-2.944.2-2.944-.978a3.776,3.776,0,0,1,2.944-2.935A1.852,1.852,0,0,1,26.5,18.234,1.852,1.852,0,0,1,24.536,20.191Z" transform="translate(0 -4.5)" fill="red"/>
</svg>
