<svg xmlns="http://www.w3.org/2000/svg" width="19.806" height="19.806" viewBox="0 0 19.806 19.806">
  <path id="Icon_material-language" data-name="Icon material-language" d="M12.893,3a9.9,9.9,0,1,0,9.913,9.9A9.9,9.9,0,0,0,12.893,3Zm6.863,5.942H16.834a15.5,15.5,0,0,0-1.367-3.525A7.952,7.952,0,0,1,19.756,8.942ZM12.9,5.02a13.95,13.95,0,0,1,1.891,3.922H11.011A13.95,13.95,0,0,1,12.9,5.02ZM5.238,14.883a7.746,7.746,0,0,1,0-3.961H8.585A16.355,16.355,0,0,0,8.447,12.9a16.355,16.355,0,0,0,.139,1.981Zm.812,1.981H8.971a15.5,15.5,0,0,0,1.367,3.525A7.909,7.909,0,0,1,6.05,16.864ZM8.971,8.942H6.05a7.909,7.909,0,0,1,4.288-3.525A15.5,15.5,0,0,0,8.971,8.942ZM12.9,20.785a13.95,13.95,0,0,1-1.891-3.922h3.783A13.95,13.95,0,0,1,12.9,20.785Zm2.317-5.9H10.586a14.57,14.57,0,0,1-.158-1.981,14.443,14.443,0,0,1,.158-1.981H15.22a14.443,14.443,0,0,1,.158,1.981A14.57,14.57,0,0,1,15.22,14.883Zm.248,5.506a15.5,15.5,0,0,0,1.367-3.525h2.921a7.952,7.952,0,0,1-4.288,3.525Zm1.753-5.506a16.355,16.355,0,0,0,.139-1.981c0-.673-.139-1.981-.139-1.981h3.347a7.746,7.746,0,0,1,0,3.961Z" transform="translate(-3 -3)" fill="red"/>
</svg>
