<svg id="Group_2" data-name="Group 2" xmlns="http://www.w3.org/2000/svg" xmlns:xlink="http://www.w3.org/1999/xlink" width="180.313" height="114.642" viewBox="0 0 180.313 114.642">
  <defs>
    <clipPath id="clip-path">
      <rect id="Rectangle_4" data-name="Rectangle 4" width="180.313" height="114.642" fill="red"/>
    </clipPath>
  </defs>
  <g id="Group_1" data-name="Group 1" clip-path="url(#clip-path)">
    <text id="C_A_R_D_E_A_L" data-name="C A R D E A L" transform="translate(22 102.564)" fill="red" font-size="26" font-family="Helvetica"><tspan x="0" y="0">C A R D E A L</tspan></text>
    <path id="Path_1" data-name="Path 1" d="M121.05,13.874h69.282A29.131,29.131,0,0,0,184.49,7.4c-4.207-3.647-7.376-4.857-16.009-6.3-9.363-1.565-40.9-1.152-45.456-.664-3.839.412-4.857,1.558-5.3,2.22-.84,1.237-.813,2.5-.6,4.243a35.888,35.888,0,0,0,.763,3.848c.718,3.007,2.337,3.122,3.165,3.122" transform="translate(-53.243 0)" fill="red"/>
    <path id="Path_2" data-name="Path 2" d="M259.855,22.291c1.364,0,6.827-1.229,8.055-2.729s-.956-3.14-2.594-3.96-4.414-2.321-6.85-1.093c0,0-.387,0-.8,1.913s.82,5.87,2.186,5.87" transform="translate(-117.227 -6.391)" fill="red"/>
    <path id="Path_3" data-name="Path 3" d="M58.391,22.229c2.411,1.049,22.685-6.6,22.685-6.6a7.015,7.015,0,0,0,3.957-4.1c1.118-2.561,2.717-6,1.465-7.442-.254-.294-1.01-1.053-3.274-.229a63.3,63.3,0,0,0-18.707,10.38c-5.046,4.112-8.535,6.934-6.125,7.983" transform="translate(-26.218 -1.59)" fill="red"/>
    <path id="Path_4" data-name="Path 4" d="M49.357,23.708c.059.806,3.648-6.056,13.794-12.05,1.433-.846-3.6-.129-8.363,1.131-2.435.644-7.51,1.721-8.005,3.436-.46,1.595.779,3.075,1.224,3.692a9.315,9.315,0,0,1,1.35,3.79" transform="translate(-21.245 -5.139)" fill="red"/>
    <path id="Path_5" data-name="Path 5" d="M156.794,75.023c2.364-.34,2.973-3.681,3.152-4.086,2.3-.027,2.693,0,3.592,0,1.658-.01,1.5-3.172,1.746-9.573a105.557,105.557,0,0,0,.239-12.919c-.389-7.664-5.815-15.156-10.2-15.245-6.529-.133-10.068,1.568-12.854,8.411,1.1-.032,15.011.006,16.316,1.309s1.3,4.861,1.3,4.861-14.655-.385-19.135-.088c-.9,5.823-1.367,11.483-10.222,12.536-13.972,1.659-27.694,1.067-32.211-6.625a43.128,43.128,0,0,0-3.764-5.546c-7.685-.077-21.076.2-21.8.2-.949,0-1.423-2.014-1.66-3.437-.385-2.313.829-1.978,17.223-2.922a54.28,54.28,0,0,0-17.173-8.933c-18.463-6.045-22.953-2.134-25.7,3.912C43.479,41.659,43.2,46.665,43.5,52.6c.054,1.06-.007,4.5,0,4.861-4.134-.232-11.146.349-11.516-7.331-.374-7.766.873-10.255.873-10.73s-5.864-.592-4.491-4.03-6.074.44-7.734,1.659a4.726,4.726,0,0,0-2.745,3.438,24.034,24.034,0,0,0-.274,3.408c-1.981,1.5-3.468,7.806-3.468,15.363,0,5.383.755,10.131,1.9,12.96a7.8,7.8,0,0,0,2.117,3.042C6.766,75.748,0,76.383,0,77.069c0,1.677,40.365,3.038,90.157,3.038s90.157-1.361,90.157-3.038c0-.788-8.909-1.506-23.519-2.046M50.263,41.705c1.965,0,3.558,6.325,3.558,14.127s-1.593,14.128-3.558,14.128-3.558-6.325-3.558-14.128S48.3,41.705,50.263,41.705M16.792,59.239c0-6.709,1.37-12.146,3.06-12.146s3.059,5.437,3.059,12.146-1.37,12.147-3.059,12.147-3.06-5.438-3.06-12.147M35.845,69.909c3.321.171,6.684.268,9.635.325a10.305,10.305,0,0,0,2.4,4.151c-5.149.092-10,.2-14.493.324.965-.6,1.822-2.328,2.46-4.8M64.053,74.16a7.758,7.758,0,0,0,1.2-2.2c8.414-.057,49.226-.508,75.542-.8a8.2,8.2,0,0,0,2.326,3.457c-14.871-.364-33.171-.579-52.965-.579-9.077,0-17.84.045-26.1.129" transform="translate(0 -13.625)" fill="red"/>
  </g>
</svg>
