<svg id="Group_175" data-name="Group 175" xmlns="http://www.w3.org/2000/svg" xmlns:xlink="http://www.w3.org/1999/xlink" width="15.758" height="19.99" viewBox="0 0 15.758 19.99">
  <defs>
    <clipPath id="clip-path">
      <rect id="Rectangle_239" data-name="Rectangle 239" width="15.758" height="19.99" fill="red"/>
    </clipPath>
  </defs>
  <g id="Group_174" data-name="Group 174" clip-path="url(#clip-path)">
    <path id="Path_72" data-name="Path 72" d="M86.712,8.978a4.489,4.489,0,1,1,4.49-4.49,4.5,4.5,0,0,1-4.49,4.49m0-7.494a3.005,3.005,0,1,0,3,3,3.008,3.008,0,0,0-3-3" transform="translate(-78.832)" fill="red"/>
    <path id="Path_73" data-name="Path 73" d="M7.879,230.7a22.739,22.739,0,0,1-4.564-.535l-.826-.184A3.23,3.23,0,0,1,0,226.813v-2.265a4.782,4.782,0,0,1,4.777-4.778H5l2.878,1.917,2.875-1.917h.225a4.783,4.783,0,0,1,4.779,4.778v2.265a3.245,3.245,0,0,1-2.5,3.171l-.426.1a23.581,23.581,0,0,1-4.954.615m-3.317-9.438a3.3,3.3,0,0,0-3.078,3.286v2.265a1.757,1.757,0,0,0,1.35,1.725l.784.172a21.051,21.051,0,0,0,4.261.506,21.991,21.991,0,0,0,4.627-.581l.434-.1a1.759,1.759,0,0,0,1.333-1.722v-2.265a3.3,3.3,0,0,0-3.08-3.286L7.879,223.47Z" transform="translate(0 -210.709)" fill="red"/>
  </g>
</svg>
