<svg xmlns="http://www.w3.org/2000/svg" width="23.378" height="23.378" viewBox="0 0 23.378 23.378">
  <path id="Icon_awesome-street-view" data-name="Icon awesome-street-view" d="M16.08,14.413a2.8,2.8,0,0,1-.695.6v1c2.907.408,4.9,1.226,4.9,2.17,0,1.352-4.07,2.448-9.091,2.448S2.1,19.534,2.1,18.182c0-.944,1.988-1.761,4.9-2.17v-1a2.8,2.8,0,0,1-.695-.6C2.573,15.094,0,16.524,0,18.182c0,2.317,5.01,4.2,11.189,4.2s11.189-1.879,11.189-4.2C22.378,16.524,19.805,15.094,16.08,14.413ZM11.189,5.595a2.8,2.8,0,1,0-2.8-2.8A2.8,2.8,0,0,0,11.189,5.595Zm-2.8,8.392v4.2a1.4,1.4,0,0,0,1.4,1.4h2.8a1.4,1.4,0,0,0,1.4-1.4v-4.2a1.4,1.4,0,0,0,1.4-1.4v-4.2a2.1,2.1,0,0,0-2.1-2.1h-.516a3.755,3.755,0,0,1-3.164,0H9.091a2.1,2.1,0,0,0-2.1,2.1v4.2A1.4,1.4,0,0,0,8.392,13.987Z" transform="translate(0.5 0.5)" fill="none" stroke="red" stroke-width="1"/>
</svg>
