<svg xmlns="http://www.w3.org/2000/svg" width="14.815" height="18.543" viewBox="0 0 14.815 18.543">
  <g id="Icon_ionic-ios-notifications-outline" data-name="Icon ionic-ios-notifications-outline" transform="translate(-6.775 -3.93)">
    <path id="Path_17" data-name="Path 17" d="M18.437,28.336a.6.6,0,0,0-.589.473,1.161,1.161,0,0,1-.232.505.876.876,0,0,1-.746.273.89.89,0,0,1-.746-.273,1.161,1.161,0,0,1-.232-.505.6.6,0,0,0-.589-.473h0a.6.6,0,0,0-.589.737,2.071,2.071,0,0,0,2.155,1.719,2.067,2.067,0,0,0,2.155-1.719.607.607,0,0,0-.589-.737Z" transform="translate(-2.702 -8.319)" fill="rgba(0,0,0,0.5)"/>
    <path id="Path_18" data-name="Path 18" d="M21.4,17.663c-.714-.941-2.118-1.492-2.118-5.705,0-4.324-1.909-6.062-3.689-6.479-.167-.042-.287-.1-.287-.273V5.071A1.137,1.137,0,0,0,14.2,3.93h-.028a1.137,1.137,0,0,0-1.112,1.14V5.2c0,.171-.12.232-.287.273C10.985,5.9,9.08,7.633,9.08,11.957c0,4.213-1.4,4.76-2.118,5.705A.92.92,0,0,0,7.7,19.136H20.681A.921.921,0,0,0,21.4,17.663Zm-1.807.269H8.788a.2.2,0,0,1-.153-.338,5.615,5.615,0,0,0,.973-1.548,10.5,10.5,0,0,0,.663-4.088,7.107,7.107,0,0,1,.969-4.023,2.974,2.974,0,0,1,1.794-1.279,1.624,1.624,0,0,0,.862-.487.367.367,0,0,1,.552-.009,1.679,1.679,0,0,0,.871.5,2.974,2.974,0,0,1,1.794,1.279,7.107,7.107,0,0,1,.969,4.023,10.5,10.5,0,0,0,.663,4.088,5.679,5.679,0,0,0,1,1.571A.192.192,0,0,1,19.6,17.931Z" transform="translate(0 0)" fill="rgba(0,0,0,0.5)"/>
  </g>
</svg>
