<svg xmlns="http://www.w3.org/2000/svg" width="27.603" height="28.326" viewBox="0 0 27.603 28.326">
  <path id="Icon_map-car-repair" data-name="Icon map-car-repair" d="M12.541,4.594,11.133,6.51H7.845A3.067,3.067,0,0,0,11.432,8.4a14.736,14.736,0,0,1,3.172-.15c1.023.245.6.246,2.43,1.718l9.14,7.538a1.214,1.214,0,0,0,1.772-.267,1.52,1.52,0,0,0-.036-2.047L16.339,5.931a3.959,3.959,0,0,1-1.157-2.314A4.39,4.39,0,0,0,11.155.745,4.521,4.521,0,0,0,7.662,3.039h3.471Zm7.937,14.064L16.9,12.451c-.141-.257-.5-.735-.791-.735H6.156c-.293,0-.65.477-.792.735L1.877,18.658H1.788c-.587,0-1.068.213-1.068.8V24.8c0,.588.481.8,1.068.8H3.034v1.869a1.464,1.464,0,0,0,1.424,1.6h.534a1.533,1.533,0,0,0,1.513-1.6V25.6h9.256v1.869a1.533,1.533,0,0,0,1.513,1.6h.534a1.464,1.464,0,0,0,1.424-1.6V25.6h1.246c.587,0,1.068-.213,1.068-.8V19.459C21.546,18.872,21.065,18.658,20.478,18.658Zm-16.821,4a1.335,1.335,0,1,1,1.335-1.335,1.335,1.335,0,0,1-1.335,1.335Zm1.068-4L6.889,14.13c.131-.263.48-.678.773-.678H14.6c.293,0,.641.415.773.678l2.164,4.528Zm13.884,4a1.335,1.335,0,1,1,1.335-1.335,1.335,1.335,0,0,1-1.335,1.335Z" transform="translate(-0.72 -0.745)" fill="#bfbfbf"/>
</svg>
