<svg xmlns="http://www.w3.org/2000/svg" width="111" height="111" viewBox="0 0 111 111">
  <path id="Icon_awesome-user-circle" data-name="Icon awesome-user-circle" d="M55.5.563a55.5,55.5,0,1,0,55.5,55.5A55.49,55.49,0,0,0,55.5.563Zm0,21.484A19.694,19.694,0,1,1,35.806,41.74,19.694,19.694,0,0,1,55.5,22.046Zm0,76.984A42.884,42.884,0,0,1,22.715,83.768,24.951,24.951,0,0,1,44.758,70.385a5.476,5.476,0,0,1,1.589.246A29.63,29.63,0,0,0,55.5,72.175a29.518,29.518,0,0,0,9.153-1.544,5.476,5.476,0,0,1,1.589-.246A24.951,24.951,0,0,1,88.285,83.768,42.884,42.884,0,0,1,55.5,99.03Z" transform="translate(0 -0.563)" fill="#bfbfbf"/>
</svg>
