<svg xmlns="http://www.w3.org/2000/svg" width="7.987" height="8.862" viewBox="0 0 7.987 8.862">
  <path id="Path_215" data-name="Path 215" d="M7.987,1.658a22.036,22.036,0,0,0-.906,2.484,20.445,20.445,0,0,0-.725,3.3H1.632a20.442,20.442,0,0,0-.725-3.3A22.042,22.042,0,0,0,0,1.658,13.854,13.854,0,0,1,1.422,2.71a1.086,1.086,0,0,0,.832,1.714A.881.881,0,0,0,3.073,3.5a1.083,1.083,0,0,0-.61-.982L3.993,0l1.53,2.515a1.083,1.083,0,0,0-.61.982.881.881,0,0,0,.819.929A1.086,1.086,0,0,0,6.565,2.71,13.855,13.855,0,0,1,7.987,1.658M6.3,7.9H1.688l.091.956H6.208Z" transform="translate(0 0.001)"/>
</svg>
