<svg xmlns="http://www.w3.org/2000/svg" width="8.702" height="5.221" viewBox="0 0 8.702 5.221">
  <path id="Icon_awesome-money-bill-alt" data-name="Icon awesome-money-bill-alt" d="M4.786,7.546H4.568v-1.2A.109.109,0,0,0,4.46,6.24H4.275a.326.326,0,0,0-.181.055l-.208.139a.109.109,0,0,0-.03.151l.121.181a.109.109,0,0,0,.151.03l.006,0v.754H3.916a.109.109,0,0,0-.109.109v.218a.109.109,0,0,0,.109.109h.87a.109.109,0,0,0,.109-.109V7.654A.109.109,0,0,0,4.786,7.546ZM8.267,4.5H.435A.435.435,0,0,0,0,4.935V9.286a.435.435,0,0,0,.435.435H8.267A.435.435,0,0,0,8.7,9.286V4.935A.435.435,0,0,0,8.267,4.5ZM.653,9.068V8.2a.87.87,0,0,1,.87.87Zm0-3.046v-.87h.87A.87.87,0,0,1,.653,6.023Zm3.7,2.61A1.427,1.427,0,0,1,3.046,7.11,1.427,1.427,0,0,1,4.351,5.588,1.427,1.427,0,0,1,5.656,7.11,1.427,1.427,0,0,1,4.351,8.633Zm3.7.435h-.87a.87.87,0,0,1,.87-.87Zm0-3.046a.87.87,0,0,1-.87-.87h.87Z" transform="translate(0 -4.5)"/>
</svg>
