<svg xmlns="http://www.w3.org/2000/svg" width="15.24" height="18.799" viewBox="0 0 15.24 18.799">
  <g id="Group_166" data-name="Group 166" transform="translate(-38.5 -638.625)">
    <path id="Icon_feather-shield" data-name="Icon feather-shield" d="M13.12,20.8s7.12-3.56,7.12-8.9V5.67L13.12,3,6,5.67V11.9C6,17.24,13.12,20.8,13.12,20.8Z" transform="translate(33 636.125)" fill="none" stroke="red" stroke-linecap="round" stroke-linejoin="round" stroke-width="1"/>
    <path id="Icon" d="M2.572,6.741a.453.453,0,0,0,.4-.221L6.7.651A.535.535,0,0,0,6.8.359.337.337,0,0,0,6.437,0,.352.352,0,0,0,6.1.2L2.556,5.846.718,3.44a.385.385,0,0,0-.339-.193A.358.358,0,0,0,0,3.617a.479.479,0,0,0,.114.288L2.162,6.512A.491.491,0,0,0,2.572,6.741Z" transform="translate(43.141 643.253) rotate(9)" fill="red"/>
  </g>
</svg>
