<svg xmlns="http://www.w3.org/2000/svg" width="21.882" height="27.914" viewBox="0 0 21.882 27.914">
  <path id="Icon_map-car-rental" data-name="Icon map-car-rental" d="M23.957,2.284H13.34A4.954,4.954,0,0,0,9.552.179,4.586,4.586,0,0,0,4.9,4.753a4.531,4.531,0,0,0,4.65,4.509,4.817,4.817,0,0,0,4.313-3.051h1.546l1.12-1.121,1.12,1.121h.7L19.47,5.09l1.12,1.121h.7l1.12-1.121,1.12,1.121h.428v.158l-.1.023L26.07,4.225ZM8.047,5.992A1.347,1.347,0,1,1,9.395,4.646,1.347,1.347,0,0,1,8.047,5.992ZM25.079,16.871h-.31L21.322,10.63a1.051,1.051,0,0,0-.832-.491H10.032a1.051,1.051,0,0,0-.832.491L5.752,16.871h-.31A1.125,1.125,0,0,0,4.32,17.993V23.6a1.125,1.125,0,0,0,1.122,1.122H6.564v1.683a1.688,1.688,0,0,0,1.683,1.683h.561a1.688,1.688,0,0,0,1.683-1.683V24.726H20.03v1.683a1.688,1.688,0,0,0,1.683,1.683h.561a1.688,1.688,0,0,0,1.683-1.683V24.726h1.122A1.125,1.125,0,0,0,26.2,23.6V17.993a1.125,1.125,0,0,0-1.122-1.122ZM7.406,21.36a1.4,1.4,0,1,1,1.4-1.4A1.4,1.4,0,0,1,7.406,21.36Zm1.122-4.489L10.8,12.324a1,1,0,0,1,.812-.5h7.294a1,1,0,0,1,.812.5l2.274,4.547ZM23.116,21.36a1.4,1.4,0,1,1,1.4-1.4A1.4,1.4,0,0,1,23.116,21.36Z" transform="translate(-4.32 -0.179)" fill="#bfbfbf"/>
</svg>
