<svg id="Group_83" data-name="Group 83" xmlns="http://www.w3.org/2000/svg" xmlns:xlink="http://www.w3.org/1999/xlink" width="11.744" height="11.528" viewBox="0 0 11.744 11.528">
  <defs>
    <clipPath id="clip-path">
      <path id="Union_3" data-name="Union 3" d="M10.26,11.273,7.289,8.3A.915.915,0,0,1,7.2,8.2,4.567,4.567,0,0,1,0,4.515a4.56,4.56,0,0,1,9.12,0,4.453,4.453,0,0,1-.732,2.45.853.853,0,0,1,.13.107l2.972,2.972a.869.869,0,0,1-1.229,1.228ZM4.56,8.079A3.565,3.565,0,1,0,.96,4.515,3.586,3.586,0,0,0,4.56,8.079Z" fill="#bfbfbf"/>
    </clipPath>
  </defs>
  <g id="Mask">
    <path id="Mask-2" data-name="Mask" d="M10.26,11.273,7.289,8.3A.879.879,0,0,1,7.2,8.2,4.567,4.567,0,0,1,0,4.515a4.56,4.56,0,0,1,9.12,0,4.456,4.456,0,0,1-.732,2.45.873.873,0,0,1,.13.107l2.972,2.972a.869.869,0,1,1-1.229,1.228ZM.96,4.515A3.6,3.6,0,1,0,4.56.95,3.586,3.586,0,0,0,.96,4.515Z" transform="translate(0)" fill="#bfbfbf" style="mix-blend-mode: color-burn;isolation: isolate"/>
    <path id="Mask-3" data-name="Mask" d="M10.26,11.273,7.289,8.3A.879.879,0,0,1,7.2,8.2,4.567,4.567,0,0,1,0,4.515a4.56,4.56,0,0,1,9.12,0,4.456,4.456,0,0,1-.732,2.45.873.873,0,0,1,.13.107l2.972,2.972a.869.869,0,1,1-1.229,1.228ZM.96,4.515A3.6,3.6,0,1,0,4.56.95,3.586,3.586,0,0,0,.96,4.515Z" transform="translate(0)" fill="#bfbfbf"/>
  </g>
</svg>
