<svg xmlns="http://www.w3.org/2000/svg" xmlns:xlink="http://www.w3.org/1999/xlink" width="294.37" height="171.849" viewBox="0 0 294.37 171.849">
  <defs>
    <filter id="Sold_Out" x="62.541" y="27.905" width="188.243" height="115.191" filterUnits="userSpaceOnUse">
      <feOffset dy="3" input="SourceAlpha"/>
      <feGaussianBlur stdDeviation="3" result="blur"/>
      <feFlood flood-opacity="0.502"/>
      <feComposite operator="in" in2="blur"/>
      <feComposite in="SourceGraphic"/>
    </filter>
    <filter id="Path_187" x="0" y="0" width="294.37" height="171.849" filterUnits="userSpaceOnUse">
      <feOffset dy="3" input="SourceAlpha"/>
      <feGaussianBlur stdDeviation="3" result="blur-2"/>
      <feFlood flood-opacity="0.502"/>
      <feComposite operator="in" in2="blur-2"/>
      <feComposite in="SourceGraphic"/>
    </filter>
  </defs>
  <g id="Group_861" data-name="Group 861" transform="translate(-41 -142.218)">
    <g transform="matrix(1, 0, 0, 1, 41, 142.22)" filter="url(#Sold_Out)">
      <text id="Sold_Out-2" data-name="Sold Out" transform="translate(82.65 122.69) rotate(-21)" fill="red" font-size="40" font-family="Helvetica-Bold, Helvetica" font-weight="700"><tspan x="0" y="0">Sold Out</tspan></text>
    </g>
    <g transform="matrix(1, 0, 0, 1, 41, 142.22)" filter="url(#Path_187)">
      <g id="Path_187-2" data-name="Path 187" transform="translate(9 103.83) rotate(-21)" fill="none">
        <path d="M10,0H263a10,10,0,0,1,10,10V50a10,10,0,0,1-10,10H10A10,10,0,0,1,0,50V10A10,10,0,0,1,10,0Z" stroke="none"/>
        <path d="M 10 2 C 5.588775634765625 2 2 5.588787078857422 2 10 L 2 50 C 2 54.41121292114258 5.588775634765625 58 10 58 L 263 58 C 267.4112243652344 58 271 54.41121292114258 271 50 L 271 10 C 271 5.588787078857422 267.4112243652344 2 263 2 L 10 2 M 10 0 L 263 0 C 268.5228576660156 0 273 4.477142333984375 273 10 L 273 50 C 273 55.52285766601562 268.5228576660156 60 263 60 L 10 60 C 4.477142333984375 60 0 55.52285766601562 0 50 L 0 10 C 0 4.477142333984375 4.477142333984375 0 10 0 Z" stroke="none" fill="red"/>
      </g>
    </g>
  </g>
</svg>
