<svg xmlns="http://www.w3.org/2000/svg" width="27.241" height="16.745" viewBox="0 0 27.241 16.745">
  <path id="Icon_awesome-money-bill-alt" data-name="Icon awesome-money-bill-alt" d="M14.433,13.684h-.656V10.076a.328.328,0,0,0-.328-.328h-.557a.983.983,0,0,0-.546.165l-.629.419a.328.328,0,0,0-.091.455l.364.546a.328.328,0,0,0,.455.091l.019-.013v2.273h-.656a.328.328,0,0,0-.328.328v.656a.328.328,0,0,0,.328.328h2.624a.328.328,0,0,0,.328-.328v-.656A.328.328,0,0,0,14.433,13.684ZM24.929,4.5H1.312A1.312,1.312,0,0,0,0,5.812V18.933a1.312,1.312,0,0,0,1.312,1.312H24.929a1.312,1.312,0,0,0,1.312-1.312V5.812A1.312,1.312,0,0,0,24.929,4.5ZM1.968,18.277V15.653a2.624,2.624,0,0,1,2.624,2.624Zm0-9.184V6.468H4.592A2.624,2.624,0,0,1,1.968,9.092Zm11.153,7.872c-2.174,0-3.936-2.056-3.936-4.592S10.947,7.78,13.121,7.78s3.936,2.056,3.936,4.592S15.294,16.965,13.121,16.965Zm11.153,1.312H21.649a2.624,2.624,0,0,1,2.624-2.624Zm0-9.184a2.624,2.624,0,0,1-2.624-2.624h2.624Z" transform="translate(0.5 -4)" fill="none" stroke="red" stroke-width="1"/>
</svg>
