<svg xmlns="http://www.w3.org/2000/svg" width="13.546" height="20.238" viewBox="0 0 13.546 20.238">
  <g id="Group_834" data-name="Group 834" transform="translate(-342 -61.842)">
    <path id="Icon_awesome-long-arrow-alt-down" data-name="Icon awesome-long-arrow-alt-down" d="M5.72,11.582V2.607a.357.357,0,0,0-.357-.357H3.7a.357.357,0,0,0-.357.357v8.975H1.973a.713.713,0,0,0-.5,1.218l2.558,2.558a.713.713,0,0,0,1.009,0L7.593,12.8a.713.713,0,0,0-.5-1.218H5.72Z" transform="translate(347.742 66.514)"/>
    <path id="Icon_awesome-long-arrow-alt-down-2" data-name="Icon awesome-long-arrow-alt-down" d="M5.72,6.235V15.21a.357.357,0,0,1-.357.357H3.7a.357.357,0,0,1-.357-.357V6.235H1.973a.713.713,0,0,1-.5-1.218L4.027,2.459a.713.713,0,0,1,1.009,0L7.594,5.017a.713.713,0,0,1-.5,1.218H5.72Z" transform="translate(340.742 59.592)"/>
  </g>
</svg>
