<svg xmlns="http://www.w3.org/2000/svg" xmlns:xlink="http://www.w3.org/1999/xlink" width="71.371" height="70.508" viewBox="0 0 71.371 70.508">
  <defs>
    <clipPath id="clip-path">
      <rect id="Rectangle_245" data-name="Rectangle 245" width="71.371" height="70.508" transform="translate(0 0)" fill="none"/>
    </clipPath>
  </defs>
  <g id="Group_789" data-name="Group 789" transform="translate(0 0)" clip-path="url(#clip-path)">
    <path id="Path_188" data-name="Path 188" d="M64.122,40.611a1,1,0,0,1-1-1V32.182a27.438,27.438,0,0,0-54.87-.6c-.006.2-.008.4-.008.6v7.429a1,1,0,0,1-2,0V32.182c0-.216,0-.43.008-.647a29.439,29.439,0,0,1,58.87.647v7.429a1,1,0,0,1-1,1" fill="#fff"/>
    <path id="Path_189" data-name="Path 189" d="M54.028,14.474c-8.124-11.08-28.563-11.08-36.685,0a46.457,46.457,0,0,0-4.56-2.857c9.634-14.156,36.171-14.156,45.807,0a45.537,45.537,0,0,0-4.562,2.857" fill="#fff"/>
    <path id="Path_190" data-name="Path 190" d="M54.029,15.474a1,1,0,0,1-.807-.41c-3.627-4.947-10.184-7.9-17.538-7.9s-13.908,2.953-17.534,7.9a1,1,0,0,1-1.386.225,46.055,46.055,0,0,0-4.463-2.8,1,1,0,0,1-.345-1.438C16.667,4.133,25.538,0,35.685,0s19.02,4.133,23.731,11.054a1,1,0,0,1-.346,1.439,44.994,44.994,0,0,0-4.462,2.8.992.992,0,0,1-.579.186M14.248,11.3c.992.575,1.958,1.183,2.888,1.815C21.228,8.117,28.08,5.164,35.684,5.164S50.141,8.117,54.236,13.11c.937-.637,1.9-1.245,2.888-1.815C52.643,5.455,44.724,2,35.685,2S18.727,5.455,14.248,11.3" fill="#fff"/>
    <path id="Path_191" data-name="Path 191" d="M54.029,15.474a1,1,0,0,1-.807-.41c-3.627-4.947-10.184-7.9-17.538-7.9s-13.908,2.953-17.534,7.9a1,1,0,0,1-1.386.225,46.055,46.055,0,0,0-4.463-2.8,1,1,0,0,1-.345-1.438C16.667,4.133,25.538,0,35.685,0s19.02,4.133,23.731,11.054a1,1,0,0,1-.346,1.439,44.994,44.994,0,0,0-4.462,2.8.992.992,0,0,1-.579.186M14.248,11.3c.992.575,1.958,1.183,2.888,1.815C21.228,8.117,28.08,5.164,35.684,5.164S50.141,8.117,54.236,13.11c.937-.637,1.9-1.245,2.888-1.815C52.643,5.455,44.724,2,35.685,2S18.727,5.455,14.248,11.3" fill="#fff"/>
    <path id="Path_192" data-name="Path 192" d="M42.9,68.453a1,1,0,1,1,0-2c9.557,0,16.3-2.083,19.5-6.022a8.9,8.9,0,0,0,2-6.877,1,1,0,1,1,1.956-.41,10.849,10.849,0,0,1-2.4,8.547c-3.646,4.487-10.73,6.762-21.055,6.762" fill="#fff"/>
    <path id="Path_193" data-name="Path 193" d="M70.371,47.008c0-5.789-2.4-10.484-5.359-10.516v0h-1.93v.649c-2.182,1.475-3.926,5.332-3.926,9.871s1.744,8.4,3.926,9.871v.649h1.93v0c2.963-.032,5.359-4.729,5.359-10.518" fill="#fff"/>
    <path id="Path_194" data-name="Path 194" d="M65.012,58.527H63.083a1,1,0,0,1-1-1v-.148c-2.367-1.929-3.926-6-3.926-10.372s1.559-8.441,3.926-10.373v-.146a1,1,0,0,1,1-1h1.929a1.061,1.061,0,0,1,.114.006c3.511.135,6.245,5.156,6.245,11.513,0,6.42-2.788,11.48-6.348,11.518l-.011,0m-.993-2H65c2.067-.029,4.366-3.943,4.366-9.52s-2.3-9.494-4.37-9.515l-.078,0h-.9a1,1,0,0,1-.377.477c-1.679,1.134-3.485,4.448-3.485,9.042s1.806,7.909,3.485,9.042a1,1,0,0,1,.377.478" fill="#fff"/>
    <path id="Path_195" data-name="Path 195" d="M65.148,55.312A2.279,2.279,0,0,1,63.154,57.8h-2a2.281,2.281,0,0,1-2-2.484V38.705a2.286,2.286,0,0,1,2-2.488h2a2.284,2.284,0,0,1,1.994,2.488Z" fill="#fff"/>
    <path id="Path_196" data-name="Path 196" d="M63.154,58.8h-2a3.273,3.273,0,0,1-3-3.484V38.705a3.274,3.274,0,0,1,3-3.487h2a3.272,3.272,0,0,1,2.994,3.487V55.313A3.271,3.271,0,0,1,63.154,58.8m-2-21.579c-.532,0-1,.694-1,1.487V55.313c0,.79.467,1.484,1,1.484h2c.529,0,.994-.694.994-1.484V38.705c0-.793-.465-1.487-.994-1.487Z" fill="#fff"/>
    <path id="Path_197" data-name="Path 197" d="M1,47.008c0-5.789,2.395-10.484,5.357-10.516v0H8.288v.649c2.181,1.475,3.924,5.332,3.924,9.871s-1.743,8.4-3.924,9.871v.649H6.357v0C3.395,57.494,1,52.8,1,47.008" fill="#fff"/>
    <path id="Path_198" data-name="Path 198" d="M8.288,58.527H6.357C2.787,58.486,0,53.427,0,47.008,0,40.65,2.734,35.627,6.243,35.494a1.089,1.089,0,0,1,.114-.006H8.288a1,1,0,0,1,1,1v.148c2.365,1.93,3.924,6,3.924,10.372S11.653,55.45,9.288,57.379v.148a1,1,0,0,1-1,1M6.446,37.488l-.078,0C4.3,37.513,2,41.427,2,47.008s2.3,9.5,4.368,9.517h.984a1,1,0,0,1,.376-.475c1.678-1.134,3.484-4.447,3.484-9.042S9.406,39.1,7.727,37.965a1.011,1.011,0,0,1-.376-.477Z" fill="#fff"/>
    <path id="Path_199" data-name="Path 199" d="M6.219,55.312a2.281,2.281,0,0,0,2,2.484h2a2.281,2.281,0,0,0,2-2.484V38.705a2.285,2.285,0,0,0-2-2.488h-2a2.285,2.285,0,0,0-2,2.488Z" fill="#fff"/>
    <path id="Path_200" data-name="Path 200" d="M10.215,58.8h-2a3.272,3.272,0,0,1-3-3.484V38.705a3.273,3.273,0,0,1,3-3.487h2a3.273,3.273,0,0,1,3,3.487V55.313a3.272,3.272,0,0,1-3,3.484m-2-21.579c-.531,0-1,.694-1,1.487V55.313c0,.79.467,1.484,1,1.484h2c.531,0,1-.694,1-1.484V38.705c0-.793-.466-1.487-1-1.487Z" fill="#fff"/>
    <path id="Path_201" data-name="Path 201" d="M45.772,67.482a2.128,2.128,0,0,1-2.223,2.025H35.958a2.13,2.13,0,0,1-2.222-2.025V67.42a2.132,2.132,0,0,1,2.222-2.028h7.591a2.13,2.13,0,0,1,2.223,2.028Z" fill="#fff"/>
    <path id="Path_202" data-name="Path 202" d="M43.55,70.507H35.959a3.062,3.062,0,1,1,0-6.115H43.55a3.062,3.062,0,1,1,0,6.115m-7.591-4.115a1.069,1.069,0,1,0,0,2.115H43.55a1.069,1.069,0,1,0,0-2.115Z" fill="#fff"/>
    <path id="Path_203" data-name="Path 203" d="M55.562,34.809A19.878,19.878,0,1,1,35.684,14.931,19.874,19.874,0,0,1,55.562,34.809" fill="none"/>
    <path id="Path_204" data-name="Path 204" d="M35.685,55.688A20.879,20.879,0,1,1,56.562,34.81,20.9,20.9,0,0,1,35.685,55.688m0-39.757A18.879,18.879,0,1,0,54.562,34.81,18.9,18.9,0,0,0,35.685,15.931" fill="#fff"/>
    <path id="Path_205" data-name="Path 205" d="M35.684,55.711c-5.39,0-8.3-10.775-8.3-20.913s2.908-20.912,8.3-20.912,8.3,10.774,8.3,20.912-2.908,20.913-8.3,20.913m0-39.825c-2.979,0-6.3,7.767-6.3,18.912s3.319,18.913,6.3,18.913,6.3-7.767,6.3-18.913-3.318-18.912-6.3-18.912" fill="#fff"/>
    <rect id="Rectangle_243" data-name="Rectangle 243" width="2" height="39.825" transform="translate(34.684 14.886)" fill="#fff"/>
    <path id="Path_206" data-name="Path 206" d="M35.684,46.225c-11.727,0-20.913-5.02-20.913-11.427s9.186-11.426,20.913-11.426S56.6,28.391,56.6,34.8,47.411,46.225,35.684,46.225m0-20.853c-10.252,0-18.913,4.316-18.913,9.426s8.661,9.427,18.913,9.427S54.6,39.907,54.6,34.8s-8.661-9.426-18.913-9.426" fill="#fff"/>
    <rect id="Rectangle_244" data-name="Rectangle 244" width="39.826" height="2" transform="translate(15.771 33.798)" fill="#fff"/>
    <path id="Path_207" data-name="Path 207" d="M35.684,55.711c-8.829,0-16.013-9.382-16.013-20.913s7.184-20.912,16.013-20.912S51.7,23.268,51.7,34.8,44.513,55.711,35.684,55.711m0-39.825c-7.727,0-14.013,8.483-14.013,18.912s6.286,18.913,14.013,18.913S49.7,45.227,49.7,34.8,43.411,15.886,35.684,15.886" fill="#fff"/>
  </g>
</svg>
