<svg xmlns="http://www.w3.org/2000/svg" width="24.4" height="27.073" viewBox="0 0 24.4 27.073">
  <path id="Path_215" data-name="Path 215" d="M24.4,5.067a67.321,67.321,0,0,0-2.769,7.589,62.46,62.46,0,0,0-2.216,10.072H4.985A62.452,62.452,0,0,0,2.769,12.655,67.337,67.337,0,0,0,0,5.067,42.325,42.325,0,0,1,4.344,8.283c-1.587,2.632.445,5.437,2.541,5.237a2.69,2.69,0,0,0,2.5-2.838,3.307,3.307,0,0,0-1.863-3L12.2,0l4.675,7.683a3.307,3.307,0,0,0-1.863,3,2.69,2.69,0,0,0,2.5,2.838c2.1.2,4.128-2.606,2.541-5.237A42.326,42.326,0,0,1,24.4,5.067M19.243,24.15H5.157l.278,2.922h13.53Z" transform="translate(0 0.001)"/>
</svg>
