<svg xmlns="http://www.w3.org/2000/svg" width="28.399" height="22.719" viewBox="0 0 28.399 22.719">
  <path id="Icon_awesome-truck" data-name="Icon awesome-truck" d="M27.689,15.619h-.71v-4.8a2.13,2.13,0,0,0-.626-1.5L21.92,4.885a2.13,2.13,0,0,0-1.5-.626H18.459V2.13A2.13,2.13,0,0,0,16.329,0H2.13A2.13,2.13,0,0,0,0,2.13v14.2a2.13,2.13,0,0,0,2.13,2.13h.71a4.26,4.26,0,1,0,8.52,0h5.68a4.26,4.26,0,1,0,8.52,0h2.13a.712.712,0,0,0,.71-.71v-1.42A.712.712,0,0,0,27.689,15.619ZM7.1,20.589a2.13,2.13,0,1,1,2.13-2.13A2.13,2.13,0,0,1,7.1,20.589Zm14.2,0a2.13,2.13,0,1,1,2.13-2.13A2.13,2.13,0,0,1,21.3,20.589Zm3.55-9.23h-6.39V6.39h1.957l4.433,4.433Z" fill="#bfbfbf"/>
</svg>
