<svg xmlns="http://www.w3.org/2000/svg" width="32.914" height="23.037" viewBox="0 0 32.914 23.037">
  <path id="Icon_awesome-users-cog" data-name="Icon awesome-users-cog" d="M31.4,18.16a6.033,6.033,0,0,0,0-2.191l1.327-.766a.372.372,0,0,0,.17-.437,7.719,7.719,0,0,0-1.708-2.952.375.375,0,0,0-.463-.072l-1.327.766a6.039,6.039,0,0,0-1.9-1.1V9.879a.374.374,0,0,0-.293-.365,7.76,7.76,0,0,0-3.4,0,.374.374,0,0,0-.293.365v1.533a6.039,6.039,0,0,0-1.9,1.1l-1.327-.766a.376.376,0,0,0-.463.072,7.719,7.719,0,0,0-1.708,2.952.379.379,0,0,0,.17.437l1.327.766a6.033,6.033,0,0,0,0,2.191l-1.327.766a.372.372,0,0,0-.17.437,7.757,7.757,0,0,0,1.708,2.952.375.375,0,0,0,.463.072l1.327-.766a6.039,6.039,0,0,0,1.9,1.1V24.25a.374.374,0,0,0,.293.365,7.76,7.76,0,0,0,3.4,0,.374.374,0,0,0,.293-.365V22.717a6.039,6.039,0,0,0,1.9-1.1l1.327.766a.376.376,0,0,0,.463-.072A7.719,7.719,0,0,0,32.9,19.364a.379.379,0,0,0-.17-.437L31.4,18.16Zm-5.889,1.4a2.495,2.495,0,1,1,2.495-2.495A2.5,2.5,0,0,1,25.511,19.559ZM4.938,12.127A3.292,3.292,0,1,0,1.646,8.835,3.295,3.295,0,0,0,4.938,12.127Zm11.521,1.646c.1,0,.19-.026.288-.031A9.482,9.482,0,0,1,18.614,10.7a2.027,2.027,0,0,1,1.486-.648,1.977,1.977,0,0,1,1.008.273l.406.237c.041-.026.082-.046.123-.072a5.693,5.693,0,0,0,.576-2.469,5.758,5.758,0,1,0-5.755,5.755Zm5.411,10c-.118-.062-.237-.134-.35-.2a2.541,2.541,0,0,1-1.414.5,2.044,2.044,0,0,1-1.486-.648,9.379,9.379,0,0,1-2.068-3.58,2.195,2.195,0,0,1,1.327-2.587q-.008-.2,0-.4l-.406-.237a2.1,2.1,0,0,1-.5-.417c-.17.01-.334.031-.5.031a8.119,8.119,0,0,1-3.523-.823h-.427a5.928,5.928,0,0,0-5.93,5.925v1.481a2.469,2.469,0,0,0,2.469,2.469H22.188a1.98,1.98,0,0,1-.319-1.044v-.473ZM8.9,14.73a3.282,3.282,0,0,0-2.32-.957H3.292A3.3,3.3,0,0,0,0,17.065v1.646a1.644,1.644,0,0,0,1.646,1.646H5.035A7.542,7.542,0,0,1,8.9,14.73Z" transform="translate(0 -2.257)" fill="#bfbfbf"/>
</svg>
