<svg xmlns="http://www.w3.org/2000/svg" xmlns:xlink="http://www.w3.org/1999/xlink" width="140" height="140" viewBox="0 0 140 140">
  <defs>
    <filter id="Ellipse_6" x="17" y="20" width="106" height="106" filterUnits="userSpaceOnUse">
      <feOffset dy="3" input="SourceAlpha"/>
      <feGaussianBlur stdDeviation="5" result="blur"/>
      <feFlood flood-opacity="0.102"/>
      <feComposite operator="in" in2="blur"/>
      <feComposite in="SourceGraphic"/>
    </filter>
    <clipPath id="clip-path">
      <path id="Icon" d="M12.441,17.282,28.977.746a2.545,2.545,0,1,1,3.6,3.6L12.441,24.481l-11.7-11.7a2.545,2.545,0,0,1,3.6-3.6Z" transform="translate(0 0)" fill="red"/>
    </clipPath>
  </defs>
  <g id="Group_866" data-name="Group 866" transform="translate(-115 -228)">
    <circle id="Ellipse_5" data-name="Ellipse 5" cx="70" cy="70" r="70" transform="translate(115 228)" fill="rgba(255,0,0,0.25)"/>
    <g transform="matrix(1, 0, 0, 1, 115, 228)" filter="url(#Ellipse_6)">
      <circle id="Ellipse_6-2" data-name="Ellipse 6" cx="38" cy="38" r="38" transform="translate(32 32)" fill="#fff"/>
    </g>
    <g id="Group_74" data-name="Group 74" transform="translate(151.606 269.766)">
      <path id="Icon-2" data-name="Icon" d="M12.441,17.282,28.977.746a2.545,2.545,0,1,1,3.6,3.6L12.441,24.481l-11.7-11.7a2.545,2.545,0,0,1,3.6-3.6Z" transform="translate(16.394 16.234)" fill="red"/>
    </g>
    <circle id="Ellipse_7" data-name="Ellipse 7" cx="4.5" cy="4.5" r="4.5" transform="translate(138 253)" fill="red" opacity="0.8"/>
    <circle id="Ellipse_11" data-name="Ellipse 11" cx="3.5" cy="3.5" r="3.5" transform="translate(226 260)" fill="red" opacity="0.6"/>
    <circle id="Ellipse_12" data-name="Ellipse 12" cx="2.5" cy="2.5" r="2.5" transform="translate(148 344)" fill="red" opacity="0.4"/>
    <circle id="Ellipse_13" data-name="Ellipse 13" cx="2" cy="2" r="2" transform="translate(231 336)" fill="red" opacity="0.2"/>
  </g>
</svg>
