<svg xmlns="http://www.w3.org/2000/svg" width="19.086" height="19.086" viewBox="0 0 19.086 19.086">
  <path id="Icon_simple-whatsapp" data-name="Icon simple-whatsapp" d="M13.915,11.437c-.239-.119-1.405-.689-1.622-.768s-.376-.119-.535.119-.613.767-.751.924-.278.167-.514.06a6.454,6.454,0,0,1-1.911-1.181,7.215,7.215,0,0,1-1.32-1.646c-.138-.239-.015-.37.1-.489s.239-.274.359-.416a2.016,2.016,0,0,0,.236-.394.437.437,0,0,0-.02-.417c-.06-.119-.534-1.288-.733-1.754s-.387-.406-.534-.406-.3-.012-.454-.012a.9.9,0,0,0-.634.285,2.655,2.655,0,0,0-.831,1.968,4.653,4.653,0,0,0,.969,2.445,10.6,10.6,0,0,0,4.056,3.567c.568.239,1.01.382,1.355.5a3.29,3.29,0,0,0,1.5.1,2.447,2.447,0,0,0,1.6-1.134,1.969,1.969,0,0,0,.143-1.133c-.059-.107-.215-.167-.453-.274M9.592,17.3H9.579a7.955,7.955,0,0,1-4.02-1.1l-.286-.17L2.29,16.8l.8-2.9-.19-.3a7.887,7.887,0,0,1,12.284-9.73A7.784,7.784,0,0,1,17.5,9.437,7.9,7.9,0,0,1,9.6,17.3M16.319,2.743A9.656,9.656,0,0,0,9.579,0a9.455,9.455,0,0,0-8.23,14.186L0,19.086l5.038-1.314a9.593,9.593,0,0,0,4.541,1.151h0a9.5,9.5,0,0,0,9.5-9.46,9.38,9.38,0,0,0-2.779-6.689" fill="#bfbfbf"/>
</svg>
